<?xml version="1.0" encoding="utf-8"?>
<!-- Generator: Adobe Illustrator 24.0.0, SVG Export Plug-In . SVG Version: 6.00 Build 0)  -->
<svg version="1.1" id="Objects" xmlns="http://www.w3.org/2000/svg" xmlns:xlink="http://www.w3.org/1999/xlink" x="0px" y="0px"
	 viewBox="0 0 115 115" style="enable-background:new 0 0 115 115;" xml:space="preserve">
<style type="text/css">
	.st0{fill:url(#SVGID_1_);}
	.st1{fill:#FFFFFF;}
</style>
<title>social-1</title>
<linearGradient id="SVGID_1_" gradientUnits="userSpaceOnUse" x1="4.28" y1="949.6741" x2="110.6165" y2="949.6741" gradientTransform="matrix(1 0 0 1 0 -892)">
	<stop  offset="0" style="stop-color:#56CC00"/>
	<stop  offset="1" style="stop-color:#4E8C04"/>
</linearGradient>
<path class="st0" d="M110.7,53.2c-0.4-2.3-0.9,0.7-1.3-0.5c0.5-0.7,0.7-1.6,0.6-2.4c-0.2-1-0.4-1.9-0.8-2.8c-0.2-0.5-0.3-1-0.4-1.5
	s-0.3-0.9-0.4-1.4c-0.2-0.9-0.1-1.8,0.4-2.7c-1.8-5.7-4.6-11-8.3-15.7C97,21.7,93,17.7,88.4,14.3c0.1,0.1,0.2,0.3,0.3,0.5
	c-1.1-0.4-3.2-2-3-2.5l-0.8,0.6c-0.8-0.4-1.1-0.7-1.1-0.9s0.4-0.5,0.8-0.8c0.7-0.5,1.5-1.1-0.6-2c1.8,1.5-0.6,2-2,1.1
	c0.2,0.3-0.1,0.9,0,1.4c-1-0.6-2.1-1.2-3.2-1.7c1.9,0-1.9-1.1-1.9-1.6c1.1-1.1,1.7,1.4,3,0.7c0.3-0.4-0.7-1-1.9-1.7
	c-0.6-0.3-1.3-0.7-2-1c-0.6-0.2-1.2-0.5-1.7-0.8c-1.7-0.3-1.7,0-2.3,0.5c-0.3-0.4-0.7-0.7-1.1-0.9c-0.4-0.2-0.8-0.5-1.1-0.8
	c-0.8,0.1-1.6,0-2.4-0.1c-0.7-0.1-1.3-0.3-2-0.4c-0.9-0.2-1.8-0.3-2.7-0.3c0,0-1.8-0.4-1.9-0.1h-0.3l0.2,0.1c-1,0.3-2.1,0.5-3.2,0.5
	c0.3,0,0.5,0.1,0.8,0.1c1.1,0.2,2.2,0.5,3.3,1l0.6,0.3c-1.7-0.2-3.5-0.3-5.3-0.3c-2.6,0-5.3,0.2-7.9,0.6c0.3-0.1,0.6-0.2,0.9-0.3
	c0.6-0.1,1.2-0.1,1.8-0.1c1.1,0,1.9-0.2,2-1L55,4.8l-0.8-0.7c-0.8,0-1.4,0-2-0.1c0.9,0.2,1.3,0.6,0.2,1l-1.3-1
	c-0.8,0.5-1.6,1-2.4,1.6c-4.1,0.7-8.2,1.9-12,3.6c0.8-0.5,1.7-0.9,2.6-1.3c-0.2,0-0.3,0-0.5-0.1c-0.4-0.1-0.8-0.3-2.4,0.6L36,9.6
	c-1.5,0.7-3,1.5-4.5,2.4h-0.1c-0.2,0-0.5,0.1-0.5,0s0.1-0.3,0.7-0.6c0.4-0.5-2,1.4-2.9,2.4c-0.5,0.4-1,0.7-1.5,1.1
	c1-0.9,1.7-1.6,0.9-2.1c-0.8,0.5-1.4,1.2-1.9,2v-0.3c0,0-0.9,1.2-1.6,2.6c-0.8,0.7-1.6,1.4-2.3,2.1c0.2-0.4,0.4-0.7,0.6-1.1
	c0.7-1.1,1.3-2.1,0.5-2.1c-0.5,0.7-0.9,1.4-1.2,2.2c0-1.2-2,1.3-2,0.4c-0.7,0.9-1.4,1.7-2,2.6L16.3,24l-0.7-0.3l1.3-1
	c-0.1-1.3-0.6-0.6-1.2,0.5c-0.3,0.5-0.7,1.2-1.1,1.8c-0.3,0.6-0.7,1.1-1.2,1.5l0.5,0.4c-0.8,1.1-1.4,1.8-1.8,2.2
	c-0.2,0.3-0.4,0.6-0.7,0.8c-0.8,0.8-1.4,1.7-1.9,2.7c0,0.5,0,1.1,0,1.6c0,0.3,1.1-4.2,1.9-3.7c-0.2,0.8-0.5,1.6-0.8,2.4
	c-0.1,0.4-0.3,0.8-0.5,1.2S9.8,35,9.7,35.4C9.4,36.3,9.2,37.2,9,38c-0.1,0.4-0.2,0.9-0.3,1.3c-0.1,0.4-0.1,0.8-0.1,1.3
	c-0.2-0.5-0.3-1-0.5-1.4L8,37.8c0.2,1.2-1.8,2.8-2.4,5.8L6.8,41c0.4,1.3-0.1,3.2-0.4,5.3c-0.2,1-0.4,2.1-0.5,3.2c-0.1,1-0.1,2,0.1,3
	c0.1-1,0.1-2,0.6-2.1c0.4,0.9,0,3.2-0.3,4.5c-0.8-0.3-0.9-2.5-1-4.5s0.3-3.8-0.5-3.5c-0.2,1-0.3,2-0.2,3.1c0.1,1,0.3,1.9,0.4,2.8
	s0.3,1.7,0.4,2.5c0.1,0.7,0.2,1.4,0.2,2.1c-0.3-0.7-0.7-1.4-1-2.1c0.1,0.7,0.3,1.4,0.4,2v-0.6c0.8,0.8,0,2.6,0.4,4.2l-1-1
	c0,0.5,0,1,0.1,1.5l0.2,1.5l0.2-0.4c0.3,1.2,0.5,2.4,0.8,3.5s0.6,2.2,0.8,3.3s0.4,2.2,0.7,3.3s0.5,2.1,0.8,3.3l-0.5-2.6
	C8,74.1,8.4,75,8.6,76c0.4-0.6-0.8-3.5-0.3-3.5c0.5,1.4,0.8,2.9,1,4.4c0.3,1.5,0.7,3,1.2,4.4c0.5,0.2,0.2-3.1,2-0.2
	c-0.9,0.2,0.3,2.9-1.6,1.3c2.1,2.3,0.6,2.3,2.7,3.8c-0.2-0.3-0.4-0.6-0.6-1c0-0.9,1.1,0.8,1.6,1.4c0.2,1.5,0.8,3,1.6,4.3
	c0.5,0.6,1.1,1.1,1.8,1.7l1.8,1.6c0,0.2-0.3,0.2-0.3,0.2l1.2,1.2l1.3,1.2l2.5,2.3c1.5,1.3,3.1,2.4,4.9,3.4c0.6-0.1,1.9,0.2-0.1-1.1
	c1,0.3,2,0.8,2.8,1.5c0.9,0.7,1.7,1.6,2.5,2.1c-0.7,0-1.3,0-1.9-0.1l1,0.6l1,0.5l2,1.1l2.1,1.1l2.2,0.9c2.7,1.3,5.5,2,8.5,2.3
	l-0.8-0.9l0.9,0.2l0.9,0.1l1.8,0.3c1.2,0.2,2.3,0.5,3.4,0.6c1.8,0.3,3.6,0.3,5.4,0.2c-1.8-0.6-1.1-0.7,0-0.8
	c1.2-0.1,2.3-0.2,3.4-0.4c-1-0.1-1.9-0.1-2.9,0s-2,0-2.9,0.1c-1,0.1-2.1,0.1-3.1,0.1l0.1,0.1c-1.1,0-2.2-0.1-3.3-0.1
	s-2.2-0.1-3.3-0.2l0.3-0.9c-0.4,1-2.5,0.2-4.4-0.5s-3.4-1.8-3.1-0.7c-1.8-0.5-2.2-1.6-1.7-2c-1.6-0.4-3.2-1-4.8-1.6
	c-0.3-0.6,1.1-1,1.6-0.7c0.9,0.4,2.1,0.8,3.3,1.3c1.2,0.3,2.3,0.9,3.2,1.7c1.7,0-1.1-1.4,2.3-0.6c1.4,0.7,2.8,1.2,4.3,1.6
	c1.5,0.3,3.1,0.6,4.6,0.8c0.7,0.1,1.5,0.2,2.2,0.2s1.4,0.1,2.1,0.1s1.3,0.1,1.9,0.2s1.2,0.1,1.7,0.2c-1-0.3-1.9-0.3-0.7-0.8l2.9,0.6
	c0.5-0.1,1.1-0.2,1.6-0.4c0.5-0.2,0.9-0.4,1.3-0.6c0.7-0.4,1.5-0.6,2.4-0.4c0.5-0.7-4.2,0.1-5.7-0.4c1.1-1.1,2.2-0.8,3.5-0.7
	s2.6,0.3,3.6-0.6c0.8-1.4-5.9,1.2-4.2-0.6l3.1-0.2c-1.1-0.5-2.4-0.5-3.5,0c-1.1,0.3-2.1,0.4-2.5-0.4c0.4-0.2,0.7-0.3,1.1-0.3
	c0.2,0,0.5,0,0.7,0l0.7-0.1c0.7-0.1,1.4-0.1,2.1,0.1c0.9-0.4-1.8-0.7-0.3-1.4c0.7,0.1,1.4,0.1,2.1-0.2c0.5-0.3,1.2-0.4,1.8-0.3
	L72,104c1.2-0.4,4.5-0.7,5.7-1.5c0.2,0.5-0.5,1.2-1.4,1.9c-0.9,0.5-2,0.9-3,1.1c0.8,0.1,1.7,0,2.5-0.2s1.6-0.5,2.4-0.9
	c-0.8,0.2-1.6,0.3-2.4,0.4c1.1-0.3,2-1,2.7-1.8c0.3-0.3,0.6-0.6,1-0.9c0.6-0.4,1.3-0.7,2-0.9c2.8-1.6,1.2,0.5,2.3,0.5
	c1.6-1.1,1.8-1.3,1.7-1.3s-0.8,0.2-1.1-0.3c0.7-0.3,1.1-0.7,1.6-0.9s0.9-0.5,1.4-0.7c1.2-0.6,2.4-1.3,3.4-2.2
	C89.3,98,89,98.7,87,99.6l1,0.4c0.6-0.5,1.1-1,1.6-1.5s0.9-1.1,1.3-1.7c0.8-1.2,1.8-2.3,2.8-3.8l0.7,0.3c0.3-0.4,0.6-0.8,1.1-1.1
	l1-1.1l1.2-1.4c1-1.1,2-2.3,2.8-3.6c1-1.4,1.9-2.8,2.8-4.3l1.2-2.2c0.4-0.7,0.7-1.5,1-2.2c0.6-1.3,1.1-2.6,1.4-3.9
	c0.6-2.3,0.9-3.6,0.4-3.4c-0.2,0.8-0.4,1.7-0.8,2.5c-0.1,0.4-0.3,0.8-0.5,1.3c-0.1,0.2-0.2,0.5-0.3,0.7s-0.2,0.5-0.3,0.7l-1.5,3.1
	c-0.3,0.5-0.5,1-0.8,1.5l-0.1-0.4l0.1-0.2c0.3-0.6,0.6-1.5,1-2.5s0.8-2,1.2-3c0.7-2.2,1.3-4.4,1.8-6.7c0,0.1-0.1,0.3-0.1,0.6
	c-1.1-0.5,0.2-2.1-0.9-2.2c0.1-0.6,0.1-1.2,0.1-1.7c0.4-2.3,0.7-4.5,0.8-6.8c0-0.2,0-0.4,0-0.7c0-0.5,0-0.9,0-1.4v-0.1
	c0.9,1,2.3,1.3,3.6,0.9l-0.1-1.1C110.2,54.5,110.9,54.4,110.7,53.2z M9.6,76.8c-0.4-1-0.7-2-1-3c-0.2-0.5-0.3-1.1-0.5-1.6
	s-0.2-1-0.4-1.5c-0.2-0.9-0.6-1.7-1.2-2.5C6.2,67,6.1,65.7,6,64.5c-0.1-0.7,0-1.5,0.1-2.2c0.3,1.4,0.8,3.5,0.1,3.6
	c0.3,0.7,0.7,1.4,1.2,2c0.3,0.3,0.5,0.2,1,0.1c-0.5,0.1-0.4,1-0.2,2c0.2,0.5,0.4,1,0.6,1.5C9,72,9.3,72.4,9.6,72.8
	c0.5,1,0.8,2.1,0.9,3.2c0,0.5,0.1,1,0.2,1.5c0.1,0.5,0.2,1,0.3,1.5C10.5,78.4,10,77.7,9.6,76.8z M102.6,80.2l-0.3,0.5
	c-0.1,0,0.1-0.4,0.4-1.1L102.6,80.2z"/>
<path class="st1" d="M80.5,76.3h-46c-1.9,0-3.5-1.6-3.5-3.5V42.2c0-1.9,1.6-3.5,3.5-3.5h46c1.9,0,3.5,1.6,3.5,3.5v30.6
	C84,74.7,82.4,76.3,80.5,76.3L80.5,76.3z M34.1,73.1c0.1,0.1,0.2,0.2,0.4,0.2h46c0.2,0,0.3-0.1,0.4-0.2L67.3,59.6l-7.1,7.1
	c-1.5,1.5-3.9,1.5-5.4,0l-7.1-7.1L34.1,73.1z M69.5,57.5L81,69V46L69.5,57.5z M34,45.9V69l11.5-11.5L34,45.9z M34.2,41.8L57,64.5
	c0.3,0.3,0.9,0.3,1.2,0l22.7-22.7c-0.1-0.1-0.2-0.1-0.3-0.1h-46C34.4,41.7,34.3,41.8,34.2,41.8L34.2,41.8z"/>
</svg>
