<svg id="Objects" xmlns="http://www.w3.org/2000/svg" xmlns:xlink="http://www.w3.org/1999/xlink" viewBox="0 0 115 115"><defs><style>.cls-1{fill:url(#linear-gradient);}.cls-2{fill:#fff;}</style><linearGradient id="linear-gradient" x1="4.28" y1="57.5" x2="110.72" y2="57.5" gradientUnits="userSpaceOnUse"><stop offset="0.03" stop-color="#707ea0"/><stop offset="0.17" stop-color="#63709c"/><stop offset="0.5" stop-color="#475493"/><stop offset="0.79" stop-color="#36438e"/><stop offset="1" stop-color="#303d8c"/></linearGradient></defs><title>social-1</title><path class="cls-1" d="M110.67,53.24c-.45-2.35-.91.66-1.34-.54a3.34,3.34,0,0,0,.61-2.43,19.76,19.76,0,0,0-.75-2.85c-.16-.49-.3-1-.42-1.45s-.29-.94-.36-1.4a3.8,3.8,0,0,1,.4-2.65,52.08,52.08,0,0,0-8.29-15.72A63.79,63.79,0,0,0,88.45,14.34c.1.15.19.32.29.48-1.07-.35-3.22-2-3-2.52l-.84.56c-.84-.42-1.11-.68-1.05-.94s.44-.51.82-.77c.73-.48,1.48-1.07-.6-2,1.81,1.49-.63,2-2,1.12.15.25-.06.88,0,1.39-1-.61-2.13-1.19-3.23-1.72,1.9,0-1.86-1.1-1.93-1.59,1.06-1.13,1.67,1.41,3,.66C80.16,8.61,79.21,8,78,7.26c-.63-.34-1.32-.72-2-1a13.68,13.68,0,0,1-1.71-.84c-1.67-.28-1.71,0-2.33.48a2.56,2.56,0,0,0-1.1-.93,3,3,0,0,1-1.14-.85A10.06,10.06,0,0,1,67.32,4c-.71-.12-1.35-.33-2-.42a13.44,13.44,0,0,0-2.7-.3s-1.83-.39-1.88-.08h-.25l.2.12a10.83,10.83,0,0,1-3.15.5c.28,0,.54.08.8.13a13.68,13.68,0,0,1,3.26,1l.61.28a48.11,48.11,0,0,0-5.26-.28,49,49,0,0,0-7.9.63,5.4,5.4,0,0,1,.94-.3,10,10,0,0,1,1.77-.14c1.09,0,1.91-.15,2-1l1.32.39-.77-.73c-.75,0-1.43,0-2-.06.93.18,1.35.59.16,1L51.12,4a20.08,20.08,0,0,0-2.41,1.64,49.11,49.11,0,0,0-12,3.61A17.08,17.08,0,0,1,39.29,8a1.36,1.36,0,0,1-.48-.11c-.38-.14-.8-.28-2.42.56L36,9.56a46.94,46.94,0,0,0-4.49,2.38h-.06c-.24,0-.48.07-.53,0s.11-.29.73-.65c.42-.49-2,1.38-2.91,2.44-.53.36-1,.73-1.55,1.11,1-.88,1.68-1.6.86-2.12a6.57,6.57,0,0,0-1.94,2l0-.29s-.87,1.22-1.63,2.55c-.79.67-1.56,1.38-2.3,2.11.19-.36.41-.73.62-1.1.68-1.09,1.29-2.05.5-2.09a22,22,0,0,0-1.23,2.17c0-1.16-2,1.28-2,.44-.67.89-1.39,1.71-2,2.64L16.33,24l-.71-.34,1.26-1c-.11-1.3-.56-.63-1.22.49-.34.55-.74,1.21-1.11,1.83a4.22,4.22,0,0,1-1.24,1.45l.52.39C13,27.91,12.43,28.6,12.05,29a8.4,8.4,0,0,1-.68.84,12.37,12.37,0,0,0-1.92,2.65c0,.54,0,1.07,0,1.61,0,.27,1.13-4.23,1.95-3.73a24,24,0,0,1-.76,2.38c-.15.4-.3.82-.46,1.24s-.26.87-.39,1.3c-.26.88-.5,1.77-.7,2.64-.1.43-.19.86-.26,1.29a9,9,0,0,0-.08,1.27c-.16-.48-.33-1-.46-1.44L8,37.85c.2,1.24-1.78,2.75-2.4,5.82l1.22-2.59c.45,1.33-.14,3.18-.45,5.28-.18,1-.4,2.12-.54,3.18a11.11,11.11,0,0,0,.11,3c.06-1,.12-2,.58-2.11.4.87,0,3.16-.33,4.52-.82-.27-.93-2.45-1-4.46s.27-3.84-.47-3.48a12.5,12.5,0,0,0-.22,3.08c.1,1,.27,1.94.43,2.82s.33,1.71.42,2.47a7.79,7.79,0,0,1,.16,2.1c-.35-.68-.72-1.37-1-2.08.11.69.26,1.37.39,2l0-.61c.81.85,0,2.62.38,4.24l-1-1c0,.51,0,1,.1,1.53l.21,1.52.2-.42c.29,1.21.54,2.38.75,3.52s.56,2.22.78,3.31.42,2.19.69,3.26.54,2.14.79,3.25l-.52-2.61A7.34,7.34,0,0,1,8.36,76.1c.41-.55-.85-3.54-.28-3.47A24.61,24.61,0,0,1,9.1,77a28.19,28.19,0,0,0,1.2,4.43c.52.19.17-3.1,2-.19-.93.17.32,2.94-1.58,1.35,2.06,2.28.62,2.31,2.7,3.85a5.15,5.15,0,0,1-.57-1c0-.94,1.08.81,1.62,1.43a10.07,10.07,0,0,0,1.61,4.26,18.34,18.34,0,0,0,1.75,1.66l1.8,1.57c0,.24-.25.21-.25.21l1.23,1.19,1.29,1.15,2.49,2.3a30.27,30.27,0,0,0,4.85,3.39c.61-.1,1.9.18-.13-1.13A7.79,7.79,0,0,1,31.91,103c.9.67,1.71,1.55,2.53,2.14-.66,0-1.27,0-1.91-.07l.95.55,1,.5,2,1.06,2.06,1.11,2.16.94a24.83,24.83,0,0,0,8.48,2.26l-.8-.88.91.17.91.11,1.78.26c1.17.18,2.29.46,3.36.59a22.46,22.46,0,0,0,5.38.16c-1.78-.61-1.14-.74,0-.78a28.53,28.53,0,0,0,3.43-.39,22,22,0,0,0-2.91,0c-1,.09-2,0-2.94.1a29.37,29.37,0,0,1-3.11.05l.11.08c-1.08,0-2.17-.08-3.26-.12s-2.21-.07-3.29-.24l.27-.92c-.39,1-2.52.22-4.38-.53s-3.39-1.78-3.13-.66c-1.78-.53-2.16-1.57-1.73-2-1.64-.43-3.21-1-4.84-1.59-.33-.6,1.08-1,1.57-.66.89.42,2.13.83,3.33,1.26A7.14,7.14,0,0,1,43,107.2c1.7,0-1.06-1.44,2.33-.56a28.92,28.92,0,0,0,4.33,1.63c1.52.35,3.09.57,4.6.79a15.51,15.51,0,0,0,2.22.2c.73,0,1.43.08,2.11.14s1.32.13,1.92.22,1.19.1,1.72.2c-1-.29-1.93-.25-.73-.81l2.89.6a8.85,8.85,0,0,0,1.57-.37c.46-.15.87-.39,1.26-.55a3.65,3.65,0,0,1,2.36-.43c.51-.68-4.23.1-5.74-.38,1.05-1.11,2.23-.85,3.49-.74s2.57.35,3.59-.64c.78-1.41-5.89,1.24-4.15-.64l3.12-.19a4.68,4.68,0,0,0-3.51,0c-1.1.29-2.07.38-2.52-.38A3.52,3.52,0,0,1,65,105c.23,0,.47,0,.72,0l.74-.08a6.86,6.86,0,0,1,2.07.06c.86-.44-1.84-.71-.29-1.39a3.53,3.53,0,0,0,2.06-.18,2.61,2.61,0,0,1,1.78-.26l-.57.93c1.19-.38,4.46-.69,5.72-1.54.23.5-.46,1.22-1.43,1.86a11.89,11.89,0,0,1-3,1.14,6.16,6.16,0,0,0,2.51-.24,14.73,14.73,0,0,0,2.38-.88,21.21,21.21,0,0,1-2.39.37,5.34,5.34,0,0,0,2.72-1.84,4.75,4.75,0,0,1,1-.9,17,17,0,0,1,2-.93c2.84-1.63,1.17.51,2.33.46,1.56-1.08,1.82-1.25,1.65-1.25s-.81.17-1.1-.29c.65-.33,1.13-.67,1.6-.92s.9-.46,1.36-.69a13.68,13.68,0,0,0,3.43-2.18c-1.53,1.66-1.79,2.39-3.81,3.31l1,.37c.59-.5,1.11-1,1.61-1.51s.9-1.12,1.35-1.69c.85-1.19,1.81-2.3,2.8-3.8l.7.32A5.13,5.13,0,0,1,95,92.1l1-1.06,1.21-1.42a41.41,41.41,0,0,0,2.84-3.56,38.12,38.12,0,0,0,2.77-4.27l1.24-2.22c.4-.73.67-1.5,1-2.21a26.82,26.82,0,0,0,1.45-3.91c.62-2.25.86-3.62.43-3.37a13,13,0,0,1-.76,2.46c-.14.4-.29.83-.46,1.29-.08.23-.17.47-.26.71s-.22.48-.34.72l-1.46,3.07c-.25.51-.54,1-.83,1.48l-.11-.38.12-.24c.35-.64.63-1.53,1-2.46s.84-2,1.16-3a48.38,48.38,0,0,0,1.76-6.7c0,.07-.06.25-.12.57-1.06-.53.16-2.1-.94-2.24.07-.6.09-1.17.12-1.72a50.67,50.67,0,0,0,.75-6.81c0-.22,0-.44,0-.66,0-.46,0-.93,0-1.39v-.12a3.35,3.35,0,0,0,3.55.91L110,54.5C110.19,54.55,110.9,54.43,110.67,53.24ZM9.64,76.85a28.73,28.73,0,0,1-1-3c-.16-.53-.31-1.07-.46-1.59s-.24-1-.39-1.53a6.85,6.85,0,0,0-1.15-2.46,21.23,21.23,0,0,1-.49-3.72,8.35,8.35,0,0,1,.13-2.24c.26,1.38.77,3.5.13,3.57a6.52,6.52,0,0,0,1.15,2c.28.25.52.21,1,.14-.48.07-.44,1-.17,2A11.68,11.68,0,0,0,9,71.53a7.2,7.2,0,0,0,.83,1.29A8.53,8.53,0,0,1,10.71,76a12.36,12.36,0,0,0,.21,1.52,14.62,14.62,0,0,0,.32,1.46A5.18,5.18,0,0,1,9.64,76.85Zm93,3.37-.32.52c-.1,0,.07-.43.39-1.13Z"/><path class="cls-2" d="M61.26,82.5V59.69h7.42L69.8,50.8H61.26V45.13c0-2.57.69-4.33,4.27-4.33H70.1V32.85a58.89,58.89,0,0,0-6.66-.35c-6.58,0-11.09,4.14-11.09,11.75V50.8H44.9v8.89h7.45V82.5Z"/></svg>